<?xml version="1.0" standalone="no"?>
<!DOCTYPE svg PUBLIC "-//W3C//DTD SVG 20010904//EN"
 "http://www.w3.org/TR/2001/REC-SVG-20010904/DTD/svg10.dtd">
<svg version="1.0" xmlns="http://www.w3.org/2000/svg"
 width="120.000000pt" height="120.000000pt" viewBox="0 0 120.000000 120.000000"
 preserveAspectRatio="xMidYMid meet">
<metadata>
Created by potrace 1.14, written by Peter Selinger 2001-2017
</metadata>
<g transform="translate(0.000000,120.000000) scale(0.100000,-0.100000)"
fill="#000000" stroke="none">
<path d="M554 1138 c-3 -4 -20 -7 -38 -5 -31 4 -32 2 -31 -26 2 -28 1 -29 -12
-12 -7 11 -13 16 -13 12 0 -4 -10 -3 -21 4 -17 8 -20 8 -14 -1 5 -9 1 -10 -16
-5 -22 6 -22 6 -6 -7 17 -12 17 -14 -3 -30 -11 -10 -20 -14 -20 -8 0 5 8 13
18 19 14 8 11 10 -15 9 -23 -1 -33 -6 -33 -17 0 -14 2 -14 11 -1 8 12 10 12 7
1 -2 -8 -19 -16 -36 -17 -20 -2 -30 1 -26 8 4 5 -5 2 -20 -7 -25 -17 -26 -19
-10 -36 15 -16 14 -17 -3 -15 -10 2 -24 -6 -31 -18 -13 -20 -11 -9 4 29 3 8 1
15 -5 15 -6 0 -11 -3 -10 -7 2 -16 -14 -53 -23 -53 -5 0 -7 -4 -4 -9 3 -5 -1
-12 -10 -15 -8 -3 -12 -11 -8 -17 4 -8 3 -9 -4 -5 -6 4 -19 -2 -28 -13 -10
-11 -24 -17 -33 -13 -14 5 -14 4 1 -11 9 -10 14 -25 11 -37 -5 -19 -6 -19 -18
-4 -8 12 -14 14 -19 6 -11 -18 -16 -53 -7 -48 4 3 8 -1 8 -9 0 -18 -2 -18 -19
-1 -12 11 -14 8 -15 -20 -1 -19 3 -31 8 -28 5 3 7 10 4 15 -4 5 -1 9 4 9 14 0
14 -17 1 -25 -5 -3 -7 -12 -3 -20 3 -8 0 -15 -7 -15 -6 0 -9 4 -6 8 3 5 0 9
-7 9 -7 0 -13 -8 -13 -18 0 -11 6 -15 16 -11 13 5 13 3 1 -11 -10 -13 -17 -14
-26 -7 -10 8 -15 8 -21 -1 -4 -7 -3 -9 4 -5 6 3 13 2 17 -4 3 -5 1 -10 -6 -10
-7 0 -9 -3 -6 -6 4 -4 13 -1 22 6 8 7 15 9 15 4 0 -5 5 -2 11 6 9 13 10 13 6
0 -2 -8 -10 -14 -16 -12 -15 3 -14 -15 2 -22 6 -3 1 -3 -13 0 l-25 5 25 -15
c14 -9 19 -15 11 -16 -7 0 -11 -6 -8 -13 3 -8 -1 -14 -8 -14 -11 0 -11 5 -3
20 7 13 7 17 0 13 -6 -3 -13 -2 -17 4 -3 5 -12 10 -18 10 -7 0 -4 -7 6 -14 9
-7 17 -16 17 -19 0 -4 -8 -4 -17 -1 -17 5 -17 5 -1 -5 16 -11 17 -27 3 -63 -4
-11 -3 -18 5 -18 6 0 9 4 6 9 -3 5 0 11 8 14 9 4 14 -2 14 -19 0 -13 -4 -22
-8 -19 -3 2 -7 -2 -7 -10 0 -8 4 -12 9 -9 4 3 8 0 8 -6 0 -6 4 -8 10 -5 6 4
10 -6 10 -24 0 -16 -3 -31 -7 -34 -5 -2 -3 -2 4 -1 7 2 15 -1 18 -6 4 -6 -1
-10 -9 -10 -8 0 -17 -4 -21 -9 -3 -6 3 -8 14 -6 13 2 21 -3 24 -17 3 -11 10
-17 17 -13 6 3 10 3 9 -2 -3 -20 2 -27 11 -13 7 11 8 4 5 -22 -4 -29 -1 -38 9
-38 20 0 29 -17 15 -26 -8 -5 -9 -3 -4 6 5 9 4 11 -3 6 -22 -13 27 -65 59 -64
16 1 33 -3 37 -7 4 -4 -3 -5 -16 -2 -12 3 -22 1 -22 -4 0 -5 9 -9 20 -9 11 0
20 -5 20 -11 0 -8 4 -8 14 0 10 8 16 9 21 1 4 -6 1 -9 -6 -8 -6 2 -14 -3 -16
-10 -3 -8 1 -10 11 -6 12 5 15 2 10 -12 -5 -15 -4 -16 5 -4 5 8 13 11 17 7 4
-3 2 -13 -4 -20 -9 -10 -8 -14 3 -14 8 0 12 4 9 9 -3 4 0 8 5 8 6 0 11 -4 11
-10 0 -5 4 -10 10 -10 5 0 7 8 4 18 -5 13 -4 14 4 3 6 -8 8 -21 5 -30 -3 -9 5
-5 17 9 15 17 20 19 16 8 -3 -10 -9 -26 -12 -35 -3 -11 -2 -14 3 -8 4 6 22 10
38 9 17 0 36 4 44 10 12 9 13 8 6 -3 -6 -11 -3 -13 13 -9 12 4 22 3 22 -2 0
-4 10 -7 23 -7 40 -1 47 -3 47 -14 0 -8 -4 -8 -14 0 -10 8 -16 9 -21 1 -3 -5
-11 -10 -16 -10 -6 0 -8 4 -5 9 7 11 -20 8 -31 -3 -4 -4 -3 -6 2 -5 6 2 20 -3
33 -10 39 -21 62 -22 55 -3 -6 15 -4 15 14 -1 15 -13 22 -15 25 -6 2 7 14 13
27 14 13 1 20 -3 17 -10 -2 -6 2 -12 9 -12 7 0 11 6 8 14 -3 7 2 13 11 13 9 0
16 5 16 10 0 7 -6 7 -18 1 -15 -8 -18 -5 -19 12 0 12 1 16 4 10 3 -7 9 -13 14
-13 6 0 7 5 3 11 -5 8 -1 8 14 0 15 -8 23 -7 32 4 6 7 19 11 27 8 12 -5 14 -3
8 8 -8 12 -6 12 8 0 19 -15 23 -26 5 -15 -7 4 -8 3 -4 -4 4 -6 13 -9 21 -6 8
4 13 10 10 14 -3 5 0 12 6 16 8 4 9 3 5 -4 -4 -7 -2 -12 4 -12 6 0 8 -4 5 -10
-3 -6 1 -7 10 -3 12 4 13 8 5 13 -17 10 -3 31 15 24 8 -4 12 -11 8 -18 -4 -6
1 -5 10 3 18 14 23 26 8 16 -5 -3 -13 0 -17 6 -4 8 -3 9 4 5 6 -4 18 5 26 21
8 15 15 24 16 20 0 -5 -5 -17 -10 -28 -7 -13 -7 -19 0 -19 5 0 10 5 10 11 0 5
4 7 10 4 5 -3 7 0 4 8 -3 8 3 20 13 28 17 13 17 13 3 -5 -13 -17 -13 -19 0
-13 8 4 23 10 32 13 16 6 16 7 0 23 -10 9 -12 12 -5 7 19 -12 43 0 43 23 0 11
5 23 12 27 7 5 9 2 6 -8 -4 -8 -2 -21 4 -29 8 -11 9 -11 5 3 -3 9 1 19 9 22 8
3 19 17 24 31 6 17 14 24 22 19 7 -4 5 2 -5 13 -16 18 -16 21 -2 27 9 3 14 10
11 15 -3 5 1 12 10 15 8 3 12 10 9 16 -3 5 0 7 8 4 8 -3 18 1 23 8 4 7 4 10
-1 6 -4 -4 -14 0 -21 9 -10 15 -9 22 7 44 11 16 17 39 15 57 -3 30 6 35 32 19
7 -5 10 -12 8 -16 -3 -4 -2 -12 2 -18 4 -6 8 22 9 63 2 57 0 73 -10 68 -7 -5
-6 -1 2 10 13 15 12 21 -4 49 -10 18 -23 35 -28 38 -5 3 -1 9 8 12 9 4 14 3
11 -1 -2 -4 2 -18 9 -32 l14 -25 -3 25 c-7 51 -36 84 -52 58 -4 -6 -3 -8 4 -4
6 3 13 2 17 -4 4 -6 -4 -9 -18 -8 -23 2 -24 3 -10 25 17 26 9 47 -8 23 -9 -12
-10 -11 -5 4 4 11 1 23 -6 29 -9 6 -8 7 4 3 10 -3 20 0 24 6 4 7 3 8 -4 4 -7
-4 -12 -1 -12 10 0 13 -3 14 -15 4 -20 -16 -19 -6 1 14 14 15 14 16 -1 16 -9
0 -23 7 -31 15 -9 8 -11 15 -5 15 5 0 13 -4 16 -10 3 -5 14 -9 23 -9 15 1 15
2 -1 6 -9 2 -15 9 -11 14 3 5 2 9 -3 8 -23 -4 -43 2 -38 11 4 6 10 8 14 6 4
-3 8 1 8 9 0 8 -4 12 -8 9 -4 -2 -9 -1 -12 3 -2 5 -2 2 -1 -4 2 -7 -1 -13 -6
-13 -6 0 -10 9 -10 20 0 11 -7 20 -15 20 -8 0 -15 5 -15 11 0 5 4 8 9 4 5 -3
12 -2 15 3 2 4 -6 8 -19 8 -16 0 -21 -5 -18 -15 4 -14 4 -14 -6 -1 -8 11 -7
18 4 26 19 14 19 21 0 21 -8 0 -12 -4 -9 -9 3 -4 -2 -8 -11 -8 -12 0 -15 5 -9
22 6 21 6 21 -12 4 -17 -18 -18 -18 -31 0 -7 10 -13 23 -13 28 1 6 7 0 14 -13
12 -21 14 -21 20 -6 3 10 4 20 1 23 -3 3 -5 -1 -5 -9 -1 -10 -3 -10 -10 3 -6
10 -18 14 -32 11 -19 -4 -21 -3 -8 7 13 10 13 11 -2 6 -27 -8 -48 3 -41 22 3
9 -4 4 -15 -13 -18 -25 -21 -26 -19 -8 0 12 5 19 11 16 5 -3 6 -1 2 6 -4 6
-12 9 -17 6 -5 -4 -9 -1 -9 4 0 6 -4 11 -10 11 -5 0 -9 -5 -7 -11 1 -6 -4 -13
-11 -14 -7 -2 -8 -1 -2 2 5 2 7 9 4 14 -4 6 -10 6 -18 0 -9 -8 -13 -7 -13 3 0
8 8 13 18 11 10 -2 21 0 24 5 3 4 -11 6 -30 4 -24 -2 -33 1 -29 8 4 7 2 8 -5
4 -9 -6 -9 -12 1 -24 10 -14 10 -15 -1 -5 -7 6 -19 9 -26 7 -7 -3 -16 0 -20 6
-3 6 -1 9 6 8 6 -2 14 4 16 12 3 9 1 11 -4 5 -9 -11 -113 -15 -113 -5 0 10
-30 8 -36 -2z m33 -25 c0 -14 -1 -14 -12 0 -9 13 -15 14 -25 4 -12 -10 -12 -9
-1 5 15 20 38 14 38 -9z m-62 -4 c-4 -5 -12 -9 -18 -8 -9 0 -8 2 1 6 6 2 9 10
6 15 -4 7 -2 8 5 4 6 -4 9 -12 6 -17z m-81 -39 c-6 -6 -10 -3 -10 10 0 13 4
16 10 10 7 -7 7 -13 0 -20z m-139 -30 c3 -5 1 -10 -4 -10 -6 0 -11 5 -11 10 0
6 2 10 4 10 3 0 8 -4 11 -10z m308 -178 c-6 -14 -4 -15 9 -5 8 7 18 10 21 6 4
-3 7 0 7 7 0 11 3 11 12 2 7 -7 16 -8 23 -2 8 7 12 5 12 -4 0 -9 -8 -13 -20
-10 -11 2 -27 -1 -36 -7 -12 -8 -11 -9 8 -3 18 5 22 3 15 -7 -6 -12 -5 -12 8
-1 10 8 19 9 22 3 3 -5 16 -7 28 -3 14 3 19 1 14 -6 -4 -7 4 -9 25 -7 l32 4
-19 -22 c-14 -16 -14 -18 -2 -9 12 10 18 10 23 1 6 -8 10 -7 17 2 7 10 7 7 3
-8 -5 -19 -3 -21 16 -18 17 3 20 2 11 -7 -9 -9 -2 -23 26 -57 20 -25 30 -41
22 -36 -8 5 -19 10 -25 10 -5 1 -9 7 -7 14 1 7 -2 10 -8 6 -5 -3 -7 0 -4 8 3
8 -2 20 -10 27 -9 7 -13 17 -9 23 3 6 1 7 -5 3 -13 -8 -5 -36 10 -36 6 0 8 -7
5 -15 -4 -8 -2 -17 4 -20 5 -4 7 -11 3 -16 -3 -5 0 -8 7 -7 6 2 14 -3 17 -11
2 -8 0 -11 -5 -8 -5 3 -9 -3 -9 -13 0 -10 3 -17 7 -14 19 11 15 -27 -4 -40
-21 -15 -21 -15 6 -4 15 6 26 17 23 24 -3 7 2 20 10 31 9 10 12 12 8 4 -10
-20 -11 -55 -1 -62 5 -3 1 -9 -8 -12 -11 -5 -14 -3 -9 6 4 6 3 8 -1 4 -5 -4
-10 -14 -11 -23 -2 -11 3 -13 18 -8 15 4 18 3 13 -6 -4 -6 -18 -10 -30 -7 -20
3 -22 1 -12 -14 6 -9 15 -16 21 -15 6 2 8 1 3 -1 -4 -3 -5 -9 -2 -13 3 -5 0
-12 -6 -16 -7 -4 -10 -3 -7 2 3 5 0 14 -6 20 -10 9 -16 7 -24 -7 -7 -11 -8
-19 -3 -19 5 0 11 6 13 12 3 7 7 2 11 -11 4 -17 2 -21 -8 -17 -16 6 -29 -10
-30 -34 0 -8 -6 -14 -13 -12 -8 1 -11 -2 -7 -8 3 -5 1 -10 -5 -10 -7 0 -8 -6
0 -19 7 -14 7 -22 -2 -27 -6 -4 -9 -3 -5 2 3 5 -1 18 -9 28 -12 17 -13 16 -9
-17 3 -20 0 -39 -5 -42 -6 -3 -7 2 -4 12 4 12 -3 9 -20 -10 -14 -16 -30 -26
-35 -22 -5 3 -12 1 -16 -5 -3 -5 -11 -10 -18 -10 -6 0 -3 6 8 13 14 11 15 16
5 22 -9 6 -11 4 -5 -4 5 -9 -1 -11 -25 -8 -25 5 -33 1 -40 -16 -6 -15 -9 -17
-9 -6 -1 12 -9 14 -32 11 -24 -4 -30 -2 -24 8 6 10 4 11 -6 4 -8 -4 -23 -10
-34 -11 -16 -2 -17 -1 -5 6 8 5 19 7 25 3 5 -3 4 1 -2 10 -7 8 -9 19 -5 24 4
5 3 6 -2 2 -5 -4 -15 -3 -23 3 -10 9 -13 8 -13 -1 0 -10 -3 -10 -15 0 -8 7
-12 17 -8 23 3 6 1 7 -5 3 -9 -5 -7 -14 5 -31 12 -15 20 -19 25 -12 5 9 10 9
18 1 8 -8 6 -13 -8 -16 -22 -6 -68 45 -57 62 3 6 -1 7 -9 4 -9 -3 -13 -10 -10
-16 3 -5 -3 -4 -15 4 -12 7 -17 14 -11 16 6 2 8 8 4 13 -3 5 0 9 6 9 7 0 9 -7
6 -16 -3 -8 -2 -12 4 -9 16 10 12 23 -9 35 -14 7 -22 7 -27 -2 -5 -7 -3 -8 6
-3 9 5 11 4 6 -4 -12 -19 -27 -2 -16 19 14 27 12 37 -3 15 -13 -17 -14 -16
-12 6 1 13 -1 31 -6 40 -5 9 -5 19 -2 23 19 19 9 33 -21 30 -23 -3 -27 -1 -16
6 12 8 13 13 2 30 -8 14 -9 19 -1 18 6 -2 14 3 17 11 2 8 0 11 -6 7 -6 -3 -13
-2 -16 3 -4 5 8 7 26 5 18 -3 28 -1 23 3 -14 11 -12 68 4 86 10 13 9 17 -6 26
-11 6 -13 11 -5 11 8 0 10 5 6 13 -4 6 -4 9 1 5 4 -4 16 -3 26 3 14 7 19 6 19
-2 0 -7 3 -9 6 -6 4 4 1 14 -7 24 -12 15 -12 16 4 10 9 -3 17 -2 17 4 0 6 4 7
10 4 13 -8 0 28 -14 37 -6 5 5 5 24 1 33 -6 34 -5 20 13 -8 10 -10 16 -6 12 5
-4 15 -3 22 2 12 10 34 10 44 0 3 -3 14 -10 26 -17 16 -9 21 -8 21 3 0 7 -3
11 -7 9 -3 -2 -7 5 -7 16 -2 17 0 18 13 4 21 -20 39 -9 22 13 -12 15 -11 16 4
4 10 -8 14 -20 11 -30z m117 -1 c0 -5 -7 -12 -16 -15 -14 -5 -15 -4 -4 9 14
17 20 19 20 6z m32 -15 c7 4 8 2 4 -5 -9 -13 -26 -5 -25 12 0 9 2 8 6 -1 2 -6
10 -9 15 -6z m-652 -11 c0 -8 -4 -15 -10 -15 -5 0 -7 7 -4 15 4 8 8 15 10 15
2 0 4 -7 4 -15z m255 -125 c-3 -5 -12 -10 -18 -10 -7 0 -6 4 3 10 19 12 23 12
15 0z m-18 -35 c0 -8 -4 -12 -9 -9 -4 3 -8 9 -8 15 0 5 4 9 8 9 5 0 9 -7 9
-15z m823 -36 c0 -13 4 -18 12 -13 7 4 8 3 4 -5 -10 -16 -23 -6 -28 24 -3 13
-1 22 3 19 5 -3 9 -14 9 -25z m-287 6 c-3 -9 -8 -14 -10 -11 -3 3 -2 9 2 15 9
16 15 13 8 -4z m-533 -5 c0 -5 -5 -10 -11 -10 -5 0 -7 5 -4 10 3 6 8 10 11 10
2 0 4 -4 4 -10z m835 -80 c-1 -11 -4 -22 -7 -25 -4 -5 -4 34 1 43 4 8 7 -1 6
-18z m-1118 -5 c0 -6 -8 -11 -17 -11 -9 0 -17 6 -17 12 0 7 8 12 17 11 9 0 17
-6 17 -12z m0 -40 c0 -8 -4 -12 -9 -9 -5 3 -6 10 -3 15 9 13 12 11 12 -6z
m287 -7 c-3 -4 -9 -8 -15 -8 -5 0 -9 4 -9 8 0 5 7 9 15 9 8 0 12 -4 9 -9z m6
-62 c0 -3 -4 -8 -10 -11 -5 -3 -10 -1 -10 4 0 6 5 11 10 11 6 0 10 -2 10 -4z
m486 -13 c-1 -10 -7 -28 -13 -39 -7 -12 -10 -24 -8 -28 3 -3 0 -2 -7 4 -9 7
-7 14 6 29 9 10 16 22 15 27 -2 12 0 24 5 24 2 0 3 -8 2 -17z m-193 -150 c-3
-7 -9 -10 -14 -7 -14 8 -11 21 5 21 8 0 12 -6 9 -14z m422 -13 c-3 -5 -12 -10
-18 -10 -7 0 -6 4 3 10 19 12 23 12 15 0z m-15 -29 c0 -6 -4 -13 -10 -16 -5
-3 -10 1 -10 9 0 9 5 16 10 16 6 0 10 -4 10 -9z m-870 -22 c0 -4 8 -6 18 -3
14 5 15 4 2 -5 -20 -15 -23 -14 -37 9 -11 16 -10 18 2 14 8 -4 15 -10 15 -15z
m138 -94 c-3 -3 -9 2 -12 12 -6 14 -5 15 5 6 7 -7 10 -15 7 -18z m118 -47 c3
-4 -1 -5 -10 -4 -8 1 -18 5 -22 8 -3 4 1 5 10 4 8 -1 18 -5 22 -8z m195 -33
c5 4 9 1 9 -5 0 -7 -6 -10 -14 -7 -7 3 -18 1 -24 -5 -11 -11 -32 -3 -32 13 0
5 7 9 15 9 8 0 15 6 15 13 0 6 5 4 11 -6 6 -9 14 -15 20 -12z m-81 -25 c0 -5
-7 -7 -15 -4 -8 4 -12 10 -9 15 6 11 24 2 24 -11z"/>
<path d="M485 850 c-3 -5 -1 -10 5 -10 6 0 8 -5 4 -12 -6 -10 -4 -10 8 0 8 7
24 10 34 6 11 -3 9 1 -6 10 -30 18 -37 19 -45 6z"/>
<path d="M780 779 c0 -5 5 -7 10 -4 6 3 10 8 10 11 0 2 -4 4 -10 4 -5 0 -10
-5 -10 -11z"/>
<path d="M376 742 c-3 -5 1 -9 9 -9 8 0 12 4 9 9 -3 4 -7 8 -9 8 -2 0 -6 -4
-9 -8z"/>
<path d="M371 674 c0 -11 3 -14 6 -6 3 7 2 16 -1 19 -3 4 -6 -2 -5 -13z"/>
<path d="M340 585 c-9 -11 -9 -15 -1 -15 7 0 9 -4 6 -10 -3 -5 -2 -10 3 -10 6
0 9 11 8 25 -1 29 0 29 -16 10z"/>
<path d="M743 355 c1 -15 -3 -19 -18 -18 -11 1 -14 0 -6 -4 11 -4 11 -7 0 -14
-7 -4 -11 -10 -8 -13 3 -3 19 8 35 26 16 17 24 28 17 24 -6 -3 -14 0 -17 6 -3
7 -4 4 -3 -7z"/>
<path d="M600 40 c-9 -6 -10 -10 -3 -10 6 0 15 5 18 10 8 12 4 12 -15 0z"/>
<path d="M450 1122 c0 -5 7 -9 15 -9 8 0 12 4 9 9 -3 4 -9 8 -15 8 -5 0 -9 -4
-9 -8z"/>
<path d="M180 962 c0 -7 -5 -11 -11 -9 -6 1 -14 -4 -16 -10 -3 -7 0 -13 5 -13
14 0 36 29 28 37 -3 3 -6 1 -6 -5z"/>
<path d="M1156 485 c-3 -8 -1 -15 5 -15 6 0 8 -4 5 -9 -3 -5 2 -15 12 -22 15
-12 16 -12 6 1 -6 8 -10 23 -9 32 4 23 -11 33 -19 13z"/>
<path d="M1136 415 c-9 -14 -14 -25 -12 -25 2 0 13 -3 23 -6 15 -5 15 -4 3 5
-13 9 -12 12 4 24 12 9 15 16 9 20 -6 4 -18 -4 -27 -18z"/>
<path d="M68 353 c6 -2 10 -9 6 -14 -3 -5 0 -8 7 -7 7 2 13 -6 14 -16 0 -10 8
-20 18 -22 19 -3 15 9 -16 44 -11 12 -25 22 -31 21 -6 0 -5 -3 2 -6z"/>
<path d="M1105 314 c-9 -15 -12 -23 -6 -20 6 4 11 2 11 -3 0 -6 5 -11 11 -11
8 0 8 5 -1 15 -7 8 -8 15 -3 15 5 0 10 7 10 15 0 20 -2 19 -22 -11z"/>
<path d="M225 149 c-4 -6 -5 -12 -2 -15 2 -3 7 2 10 11 7 17 1 20 -8 4z"/>
<path d="M723 47 c-10 -12 -14 -19 -9 -15 5 4 15 0 23 -10 13 -15 13 -15 3 6
-12 25 -8 27 21 12 24 -14 24 -9 0 12 -18 15 -21 15 -38 -5z"/>
</g>
</svg>
